<svg viewBox="0 0 800 600" xmlns="http://www.w3.org/2000/svg">
  <defs>
    <linearGradient id="cs-wash" x1="0" y1="0" x2="1" y2="1">
      <stop offset="0%" stop-color="#EFF5FA"/>
      <stop offset="100%" stop-color="#D9E7F2"/>
    </linearGradient>
  </defs>

  <rect width="800" height="600" fill="url(#cs-wash)"/>

  <ellipse cx="730" cy="100" rx="160" ry="120" fill="#EFC9B9" opacity="0.3"/>
  <ellipse cx="70" cy="540" rx="170" ry="130" fill="#B9C4A8" opacity="0.3"/>

  <!-- map-fold paper card -->
  <g transform="translate(90,300) rotate(-4)">
    <rect x="0" y="0" width="250" height="150" fill="#FFFDF8" stroke="#CFE0EE" stroke-width="2"/>
    <path d="M50,0 v150 M170,0 v150" stroke="#D9E7F2" stroke-width="2"/>
    <path d="M20,110 q40,-40 70,-10 t80,-30" fill="none" stroke="#8FA8C4" stroke-width="3" stroke-linecap="round" stroke-dasharray="1 10"/>
    <circle cx="20" cy="110" r="6" fill="#C4785B"/>
    <circle cx="170" cy="70" r="6" fill="#8A9B7E"/>
  </g>
  <rect x="150" y="278" width="110" height="30" fill="#8FA8C4" opacity="0.8" transform="rotate(-4 205 293)"/>

  <!-- signature: hand-drawn compass -->
  <g transform="translate(420,240)">
    <circle cx="0" cy="0" r="95" fill="none" stroke="#5A7A9C" stroke-width="5"/>
    <circle cx="0" cy="0" r="95" fill="#EAF1F8" opacity="0.5"/>
    <g stroke="#5A7A9C" stroke-width="2">
      <line x1="0" y1="-95" x2="0" y2="-80"/>
      <line x1="0" y1="95" x2="0" y2="80"/>
      <line x1="-95" y1="0" x2="-80" y2="0"/>
      <line x1="95" y1="0" x2="80" y2="0"/>
    </g>
    <path d="M0,-60 L18,10 L0,60 L-18,10 Z" fill="#C4785B"/>
    <path d="M0,-60 L18,10 L0,0 Z" fill="#8A9B7E"/>
    <circle cx="0" cy="0" r="8" fill="#3E4A3B"/>
  </g>

  <g fill="#C4785B">
    <path d="M620,470 l4,12 l12,4 l-12,4 l-4,12 l-4,-12 l-12,-4 l12,-4 Z"/>
    <path d="M690,150 l3,9 l9,3 l-9,3 l-3,9 l-3,-9 l-9,-3 l9,-3 Z"/>
  </g>

  <path d="M60,480 q20,-16 40,0 t40,0 t40,0 t40,0" fill="none" stroke="#5A7A9C" stroke-width="4" stroke-linecap="round" opacity="0.55"/>

  <path d="M700,510 c0,-12 -18,-12 -18,0 c0,8 18,20 18,20 s18,-12 18,-20 c0,-12 -18,-12 -18,0 Z" fill="#E5B4B0" opacity="0.75"/>
</svg>
